<?xml version="1.0" encoding="UTF-8" standalone="no"?>
<!DOCTYPE svg PUBLIC "-//W3C//DTD SVG 1.1//EN"
 "http://www.w3.org/Graphics/SVG/1.1/DTD/svg11.dtd">
<!-- Generated by graphviz version 12.1.1 (20240910.0053)
 -->
<!-- Title: G Pages: 1 -->
<svg width="432pt" height="456pt"
 viewBox="0.00 0.00 432.50 455.58" xmlns="http://www.w3.org/2000/svg" xmlns:xlink="http://www.w3.org/1999/xlink">
<g id="graph0" class="graph" transform="scale(1 1) rotate(0) translate(4 451.58)">
<title>G</title><style>.edge>path:hover{stroke-width:8}</style>
<polygon fill="white" stroke="none" points="-4,4 -4,-451.58 428.5,-451.58 428.5,4 -4,4"/>
<!-- bs4 -->
<g id="node1" class="node">
<title>bs4</title><style>.edge>path:hover{stroke-width:8}</style>
<ellipse fill="#b65353" stroke="black" cx="27" cy="-346.88" rx="27" ry="18"/>
<text text-anchor="middle" x="27" y="-343" font-family="Helvetica,sans-Serif" font-size="10.00" fill="#ffffff">bs4</text>
</g>
<!-- linkedin_api_client -->
<g id="node3" class="node">
<title>linkedin_api_client</title><style>.edge>path:hover{stroke-width:8}</style>
<ellipse fill="#35a135" stroke="black" cx="181" cy="-172.7" rx="49.5" ry="21.57"/>
<text text-anchor="middle" x="181" y="-174.45" font-family="Helvetica,sans-Serif" font-size="10.00" fill="#ffffff">linkedin_api.</text>
<text text-anchor="middle" x="181" y="-163.2" font-family="Helvetica,sans-Serif" font-size="10.00" fill="#ffffff">client</text>
</g>
<!-- bs4&#45;&gt;linkedin_api_client -->
<g id="edge1" class="edge">
<title>bs4&#45;&gt;linkedin_api_client</title><style>.edge>path:hover{stroke-width:8}</style>
<path fill="none" stroke="black" d="M37.3,-329.86C48.33,-312.74 66.35,-284.81 82,-260.79"/>
<path fill="none" stroke="black" d="M82,-258.79C97.99,-234.26 123.06,-212.81 143.97,-197.59"/>
<polygon fill="#b65353" stroke="black" points="145.85,-200.54 152,-191.91 141.81,-194.83 145.85,-200.54"/>
</g>
<!-- linkedin_api -->
<g id="node2" class="node">
<title>linkedin_api</title><style>.edge>path:hover{stroke-width:8}</style>
<ellipse fill="#26d926" stroke="black" cx="298" cy="-18" rx="39.64" ry="18"/>
<text text-anchor="middle" x="298" y="-14.12" font-family="Helvetica,sans-Serif" font-size="10.00" fill="#000000">linkedin_api</text>
</g>
<!-- linkedin_api_linkedin -->
<g id="node5" class="node">
<title>linkedin_api_linkedin</title><style>.edge>path:hover{stroke-width:8}</style>
<ellipse fill="#38a838" stroke="black" cx="298" cy="-93.57" rx="49.5" ry="21.57"/>
<text text-anchor="middle" x="298" y="-95.32" font-family="Helvetica,sans-Serif" font-size="10.00" fill="#ffffff">linkedin_api.</text>
<text text-anchor="middle" x="298" y="-84.07" font-family="Helvetica,sans-Serif" font-size="10.00" fill="#ffffff">linkedin</text>
</g>
<!-- linkedin_api_client&#45;&gt;linkedin_api_linkedin -->
<g id="edge2" class="edge">
<title>linkedin_api_client&#45;&gt;linkedin_api_linkedin</title><style>.edge>path:hover{stroke-width:8}</style>
<path fill="none" stroke="black" d="M207.55,-154.2C223.71,-143.55 244.55,-129.8 262.16,-118.2"/>
<polygon fill="#35a135" stroke="black" points="263.87,-121.26 270.29,-112.83 260.02,-115.42 263.87,-121.26"/>
</g>
<!-- linkedin_api_cookie_repository -->
<g id="node4" class="node">
<title>linkedin_api_cookie_repository</title><style>.edge>path:hover{stroke-width:8}</style>
<ellipse fill="#38a838" stroke="black" cx="181" cy="-259.79" rx="65.41" ry="21.57"/>
<text text-anchor="middle" x="181" y="-261.54" font-family="Helvetica,sans-Serif" font-size="10.00" fill="#ffffff">linkedin_api.</text>
<text text-anchor="middle" x="181" y="-250.29" font-family="Helvetica,sans-Serif" font-size="10.00" fill="#ffffff">cookie_repository</text>
</g>
<!-- linkedin_api_cookie_repository&#45;&gt;linkedin_api_client -->
<g id="edge3" class="edge">
<title>linkedin_api_cookie_repository&#45;&gt;linkedin_api_client</title><style>.edge>path:hover{stroke-width:8}</style>
<path fill="none" stroke="black" d="M181,-237.76C181,-228.17 181,-216.61 181,-205.97"/>
<polygon fill="#38a838" stroke="black" points="184.5,-206 181,-196 177.5,-206.01 184.5,-206"/>
</g>
<!-- linkedin_api_linkedin&#45;&gt;linkedin_api -->
<g id="edge4" class="edge">
<title>linkedin_api_linkedin&#45;&gt;linkedin_api</title><style>.edge>path:hover{stroke-width:8}</style>
<path fill="none" stroke="black" d="M298,-71.68C298,-64.24 298,-55.71 298,-47.72"/>
<polygon fill="#38a838" stroke="black" points="301.5,-47.73 298,-37.73 294.5,-47.73 301.5,-47.73"/>
</g>
<!-- linkedin_api_settings -->
<g id="node6" class="node">
<title>linkedin_api_settings</title><style>.edge>path:hover{stroke-width:8}</style>
<ellipse fill="#47c247" stroke="black" cx="159" cy="-346.88" rx="49.5" ry="21.57"/>
<text text-anchor="middle" x="159" y="-348.63" font-family="Helvetica,sans-Serif" font-size="10.00" fill="#000000">linkedin_api.</text>
<text text-anchor="middle" x="159" y="-337.38" font-family="Helvetica,sans-Serif" font-size="10.00" fill="#000000">settings</text>
</g>
<!-- linkedin_api_settings&#45;&gt;linkedin_api_cookie_repository -->
<g id="edge5" class="edge">
<title>linkedin_api_settings&#45;&gt;linkedin_api_cookie_repository</title><style>.edge>path:hover{stroke-width:8}</style>
<path fill="none" stroke="black" d="M164.33,-325.28C166.87,-315.42 169.98,-303.4 172.82,-292.42"/>
<polygon fill="#47c247" stroke="black" points="176.15,-293.51 175.27,-282.96 169.38,-291.76 176.15,-293.51"/>
</g>
<!-- linkedin_api_utils -->
<g id="node7" class="node">
<title>linkedin_api_utils</title><style>.edge>path:hover{stroke-width:8}</style>
<ellipse fill="#47c247" stroke="black" cx="298" cy="-172.7" rx="49.5" ry="21.57"/>
<text text-anchor="middle" x="298" y="-174.45" font-family="Helvetica,sans-Serif" font-size="10.00" fill="#000000">linkedin_api.</text>
<text text-anchor="middle" x="298" y="-163.2" font-family="Helvetica,sans-Serif" font-size="10.00" fill="#000000">utils</text>
</g>
<!-- linkedin_api_utils&#45;&gt;linkedin_api_linkedin -->
<g id="edge6" class="edge">
<title>linkedin_api_utils&#45;&gt;linkedin_api_linkedin</title><style>.edge>path:hover{stroke-width:8}</style>
<path fill="none" stroke="black" d="M298,-151.03C298,-143.65 298,-135.16 298,-127.03"/>
<polygon fill="#47c247" stroke="black" points="301.5,-127.08 298,-117.08 294.5,-127.08 301.5,-127.08"/>
</g>
<!-- linkedin_api_utils_helpers -->
<g id="node8" class="node">
<title>linkedin_api_utils_helpers</title><style>.edge>path:hover{stroke-width:8}</style>
<ellipse fill="#47c247" stroke="black" cx="375" cy="-259.79" rx="49.5" ry="29.52"/>
<text text-anchor="middle" x="375" y="-267.16" font-family="Helvetica,sans-Serif" font-size="10.00" fill="#000000">linkedin_api.</text>
<text text-anchor="middle" x="375" y="-255.91" font-family="Helvetica,sans-Serif" font-size="10.00" fill="#000000">utils.</text>
<text text-anchor="middle" x="375" y="-244.66" font-family="Helvetica,sans-Serif" font-size="10.00" fill="#000000">helpers</text>
</g>
<!-- linkedin_api_utils_helpers&#45;&gt;linkedin_api_linkedin -->
<g id="edge7" class="edge">
<title>linkedin_api_utils_helpers&#45;&gt;linkedin_api_linkedin</title><style>.edge>path:hover{stroke-width:8}</style>
<path fill="none" stroke="black" d="M374.66,-229.81C373.31,-207.2 368.95,-175.63 356,-151.13 349.91,-139.61 340.63,-129.02 331.27,-120.2"/>
<polygon fill="#47c247" stroke="black" points="333.67,-117.65 323.87,-113.62 329.02,-122.88 333.67,-117.65"/>
</g>
<!-- requests -->
<g id="node9" class="node">
<title>requests</title><style>.edge>path:hover{stroke-width:8}</style>
<ellipse fill="#3333cc" stroke="black" cx="133" cy="-426.01" rx="31.66" ry="18"/>
<text text-anchor="middle" x="133" y="-422.14" font-family="Helvetica,sans-Serif" font-size="10.00" fill="#ffffff">requests</text>
</g>
<!-- requests&#45;&gt;linkedin_api_client -->
<g id="edge8" class="edge">
<title>requests&#45;&gt;linkedin_api_client</title><style>.edge>path:hover{stroke-width:8}</style>
<path fill="none" stroke="black" d="M119.91,-409.32C95.97,-378.6 50.38,-309.31 82,-260.79"/>
</g>
<!-- requests&#45;&gt;linkedin_api_cookie_repository -->
<g id="edge9" class="edge">
<title>requests&#45;&gt;linkedin_api_cookie_repository</title><style>.edge>path:hover{stroke-width:8}</style>
<path fill="none" stroke="black" d="M159.11,-415.39C178.96,-406.52 204.86,-391.26 217,-368.44 230.25,-343.55 217.44,-312.85 203.56,-290.62"/>
<polygon fill="#3333cc" stroke="black" points="206.49,-288.7 198.04,-282.31 200.66,-292.57 206.49,-288.7"/>
</g>
<!-- requests_cookies -->
<g id="node10" class="node">
<title>requests_cookies</title><style>.edge>path:hover{stroke-width:8}</style>
<ellipse fill="#4747c2" stroke="black" cx="274" cy="-426.01" rx="39.95" ry="21.57"/>
<text text-anchor="middle" x="274" y="-427.76" font-family="Helvetica,sans-Serif" font-size="10.00" fill="#ffffff">requests.</text>
<text text-anchor="middle" x="274" y="-416.51" font-family="Helvetica,sans-Serif" font-size="10.00" fill="#ffffff">cookies</text>
</g>
<!-- requests_cookies&#45;&gt;linkedin_api_client -->
<g id="edge10" class="edge">
<title>requests_cookies&#45;&gt;linkedin_api_client</title><style>.edge>path:hover{stroke-width:8}</style>
<path fill="none" stroke="black" d="M274,-345.88C261.36,-295.36 281.79,-274.92 255,-230.27 246.84,-216.68 234.09,-205.2 221.44,-196.21"/>
<polygon fill="#4747c2" stroke="black" points="223.4,-193.31 213.14,-190.67 219.51,-199.13 223.4,-193.31"/>
</g>
<!-- requests_cookies&#45;&gt;linkedin_api_cookie_repository -->
<g id="edge11" class="edge">
<title>requests_cookies&#45;&gt;linkedin_api_cookie_repository</title><style>.edge>path:hover{stroke-width:8}</style>
<path fill="none" stroke="black" d="M274,-345.88C267.46,-319.74 245.69,-299.06 224.86,-284.63"/>
<polygon fill="#4747c2" stroke="black" points="226.96,-281.82 216.68,-279.28 223.13,-287.68 226.96,-281.82"/>
<path fill="none" stroke="black" d="M276.72,-404.05C278.1,-388.34 278.65,-366.45 274,-347.88"/>
</g>
</g>
</svg>
